<?xml version="1.0" encoding="UTF-8"?>
<svg id="Capa_1" xmlns="http://www.w3.org/2000/svg" version="1.1" xmlns:xlink="http://www.w3.org/1999/xlink" viewBox="0 0 64.5 54">
  <!-- Generator: Adobe Illustrator 29.7.1, SVG Export Plug-In . SVG Version: 2.1.1 Build 8)  -->
  <defs>
    <style>
      .st0 {
        fill: #22d081;
      }

      .st1 {
        fill: none;
      }

      .st2 {
        clip-path: url(#clippath);
      }
    </style>
    <clipPath id="clippath">
      <rect class="st1" y="1.2" width="64.6" height="51.6"/>
    </clipPath>
  </defs>
  <g class="st2">
    <g>
      <path class="st0" d="M64.6,4.4c0-1-.3-1.6-1.8-1.6-11.6,0-23.5,2.7-29.5,5.3v4.5c5.1-2.3,12.5-4.2,20.2-5,.2,1.5.9,2.9,1.9,4.1,1.5,1.8,3.8,2.3,4.9,2.4v18.7c-1.1,0-3.1.6-4.9,2.5-2,2-2.2,4.7-2.2,5.8-14.1,2.3-21.3,6.7-22.3,5.6-1.4,1.4-2.9,2.9-2.1,4,2.2,2.9,8.7-4.5,34.1-6.4,1.2,0,1.6-.5,1.6-1.6V4.5h0Z"/>
      <path class="st0" d="M32.9,3.9c-1.2-1.4-8.9-3.5-31.7,5.9-.6.2-1.1.9-1.1,1.6v36.7c0,10.6.9,1.8,2.2,1.4,7.3-2.3,16.8-6.3,24.2-6.8,4.3-.3,6.1,0,6.5.7h0v-3.2c0-1.6-2.8-2-7.2-1.6-4.7.4-10.3,1.9-14.3,3.2-.2-.9-.5-1.7-1-2.4s-1.2-1.3-1.9-1.7c-1.3-.7-2.9-1-4.4-.9v-17.7c1.2-.5,3.4-1.6,4.6-3.5.9-1.4,1.5-3.1,1.6-4.8,5.9-2.1,12.7-4,17.6-4s4.9.8,5.3,1.3c0-1.4.2-3.5-.5-4.2h.1Z"/>
      <path class="st0" d="M33.3,16.4v-3.1c0-1.6-1.4-2.2-2.5-2.2-5.2-.3-6.6,6.1-6.4,11.3.1,4.7,1.6,7.3,4.1,9.2,2.6,1.9,4.6,1,4.8,7.1,4.5,0,8.2-5.7,8.2-12.1s-3.5-10.1-8.1-10.1h-.1Z"/>
    </g>
  </g>
</svg>