<?xml version="1.0" encoding="UTF-8"?>
<svg id="logos" xmlns="http://www.w3.org/2000/svg" version="1.1" viewBox="0 0 1048.8 425.2">
  <!-- Generator: Adobe Illustrator 29.7.1, SVG Export Plug-In . SVG Version: 2.1.1 Build 8)  -->
  <defs>
    <style>
      .st0 {
        fill: #fff;
      }

      .st1 {
        fill: #0a0080;
      }

      .st2 {
        fill: #00bcff;
      }
    </style>
  </defs>
  <path class="st2" d="M524.5,33.7c-145.6,0-263.6,75.5-263.6,168.6s118,175.9,263.6,175.9,263.6-82.8,263.6-175.9-118-168.6-263.6-168.6Z"/>
  <path class="st0" d="M438.7,150.2c-.1.3-2.7,2.9-1,5.1,4.1,5.2,16.7,8.2,29.4,5.3,7.6-1.7,17.3-9.4,26.7-16.9,10.2-8.1,20.3-16.2,30.5-19.4,10.8-3.4,17.7-2,22.2-.6,5,1.5,10.9,4.8,20.3,11.8,17.7,13.3,88.7,75.3,101,86,9.9-4.5,57-23.5,116.7-36.7-5.2-31.8-24.3-62.2-53.7-86-40.9,17.2-94.3,27.5-143.3,3.6-.2,0-26.7-12.6-52.8-12-38.8.9-55.6,17.7-73.4,35.5l-22.5,24.3h0Z"/>
  <path class="st0" d="M664.9,228.3c-.8-.7-83.6-73.1-102.3-87.2-10.8-8.1-16.9-10.2-23.2-11-3.3-.4-7.9.2-11,1.1-8.7,2.4-20.1,10-30.2,18-10.5,8.3-20.4,16.2-29.5,18.3-11.7,2.6-26-.5-32.5-4.9-2.6-1.8-4.5-3.8-5.4-5.9-2.4-5.6,2-10.1,2.8-10.8l22.8-24.7c2.7-2.6,5.3-5.3,8.1-7.9-7.4,1-14.2,2.8-20.8,4.7-8.3,2.3-16.2,4.5-24.3,4.5s-21.4-3-24.8-3.9c-20.7-5.6-44.1-11.2-71.2-23.8-32.5,24.2-53.6,53.8-59.9,87.1,4.7,1.2,16.9,4,20,4.7,73.4,16.3,96.3,33.1,100.5,36.7,4.5-5,11-8.2,18.2-8.2s15.5,4.1,19.9,10.4c4.2-3.3,10-6.2,17.5-6.2,3.4,0,6.9.6,10.5,1.8,8.3,2.8,12.6,8.4,14.8,13.4,2.8-1.3,6.2-2.2,10.2-2.2,4,0,8.1.9,12.2,2.7,13.5,5.8,15.6,19.1,14.4,29.1,1-.1,1.9-.1,2.9-.1,16.1,0,29.1,13.1,29.1,29.1s-1.3,9.7-3.5,13.7c4.4,2.5,15.5,8,25.3,6.8,7.8-1,10.8-3.6,11.8-5.2.7-1,1.5-2.2.8-3.1l-20.7-23s-3.4-3.2-2.3-4.5c1.2-1.3,3.3.6,4.8,1.8,10.6,8.8,23.4,22.1,23.4,22.1.2.1,1.1,1.8,5.8,2.7,4.1.7,11.4.3,16.4-3.8,1.3-1,2.5-2.3,3.6-3.7,0,0-.2.1-.2.2,5.3-6.8-.6-13.6-.6-13.6l-24.2-27.2s-3.5-3.2-2.3-4.5c1-1.1,3.3.6,4.8,1.8,7.7,6.4,18.5,17.3,28.8,27.4,2,1.5,11.1,7.1,23.2-.8,7.3-4.8,8.8-10.7,8.6-15.2-.5-5.9-5.1-10.1-5.1-10.1l-33-33.2s-3.5-3-2.3-4.5c1-1.3,3.3.6,4.8,1.8,10.5,8.8,39,34.9,39,34.9.4.3,10.3,7.3,22.4-.4,4.4-2.8,7.1-7,7.4-11.9.4-8.5-5.5-13.5-5.5-13.5h0Z"/>
  <path class="st0" d="M504.6,270.4c-5.1,0-10.7,3-11.5,2.5-.4-.3.3-2.3.8-3.5.5-1.2,7.2-21.5-9.2-28.5-12.6-5.4-20.3.7-22.9,3.4-.7.7-1,.7-1.1-.2-.3-3.7-1.9-13.5-12.8-16.9-15.5-4.8-25.5,6.1-28,10-1.1-8.8-8.6-15.7-17.8-15.7-10,0-18,8-18.1,18,0,10,8.1,18,18,18s9.2-1.9,12.5-5c.1,0,.1.3,0,.6-.8,4.5-2.2,20.7,14.8,27.3,6.8,2.6,12.6.7,17.4-2.7,1.4-1,1.7-.6,1.5.8-.6,4.2.2,13.1,12.7,18.1,9.5,3.9,15.1,0,18.8-3.5,1.6-1.5,2-1.2,2.1,1,.4,12,10.5,21.6,22.6,21.6,12.5,0,22.7-10.1,22.7-22.6s-10.1-22.6-22.7-22.7h0Z"/>
  <path class="st1" d="M524.4,26.7c-148.4,0-268.6,78.9-268.6,175.7s0,9.4,0,10.3c0,102.7,105.1,185.8,268.6,185.8s268.6-83.2,268.6-185.8v-10.3c0-96.8-120.3-175.7-268.6-175.7h0ZM780.9,182.9c-58.4,13-101.9,31.8-112.8,36.7-25.5-22.2-84.4-73.4-100.3-85.4-9.1-6.9-15.3-10.5-20.8-12.1-2.5-.7-5.8-1.6-10.2-1.6s-8.4.7-13,2.2c-10.3,3.3-20.6,11.4-30.5,19.3l-.5.4c-9.3,7.4-18.8,15-26.1,16.6-3.2.7-6.4,1.1-9.7,1.1-8.1,0-15.4-2.4-18.1-5.8-.4-.6-.1-1.5.9-2.8v-.2c.1,0,22.6-24.2,22.6-24.2,17.6-17.6,34.1-34.1,72.3-35,.6,0,1.3,0,1.9,0,23.8,0,47.5,10.6,50.2,11.9,22.3,10.9,45.3,16.4,68.4,16.4,24,0,48.8-5.9,74.9-17.9,27.2,22.9,45.3,50.5,50.8,80.6h0ZM524.5,37c78.8,0,149.2,22.6,196.6,58.1-22.9,9.9-44.7,14.9-65.8,14.9-21.5,0-43.1-5.2-64-15.4-1.1-.5-27.3-12.9-54.6-12.9-.7,0-1.4,0-2.2,0-32.1.7-50.1,12.1-62.3,22.1-11.8.3-22,3.1-31.1,5.7-8.1,2.2-15.1,4.2-21.9,4.2s-7.9-.3-8.3-.3c-7.8-.2-47.1-9.9-78.5-21.7,47.3-33.6,115.8-54.7,192-54.7h0ZM323.2,98.8c32.8,13.4,72.5,23.8,85.1,24.6,3.5.2,7.2.6,11,.6,8.3,0,16.7-2.3,24.7-4.6,4.8-1.3,10-2.8,15.5-3.8-1.5,1.4-3,2.9-4.4,4.4l-22.8,24.6c-1.8,1.8-5.7,6.6-3.1,12.6,1,2.4,3.1,4.7,6,6.6,5.4,3.6,15.2,6.1,24.2,6.1s6.7-.3,9.6-1c9.6-2.1,19.6-10.1,30.2-18.6,8.5-6.7,20.5-15.2,29.7-17.8,2.6-.7,5.7-1.1,8.3-1.1s1.5,0,2.1.1c6.1.8,11.9,2.8,22.4,10.7,18.7,14,101.4,86.4,102.2,87.1,0,0,5.3,4.6,5,12.2-.2,4.2-2.5,8-6.6,10.6-3.5,2.2-7.2,3.4-10.8,3.4-5.5,0-9.3-2.6-9.6-2.8-.3-.2-28.6-26.2-39.1-35-1.7-1.4-3.3-2.6-4.9-2.6s-1.6.4-2.2,1c-1.6,2,.2,4.8,2.4,6.7l33.1,33.3s4.1,3.9,4.6,9c.3,5.5-2.4,10.1-7.9,13.7-3.9,2.6-7.9,3.9-11.7,3.9s-8.7-2.3-9.4-2.9l-4.8-4.7c-8.7-8.5-17.6-17.4-24.2-22.8-1.6-1.3-3.3-2.6-4.9-2.6s-1.5.3-2.1.9c-.7.8-1.3,2.3.6,4.8.7,1,1.7,1.9,1.7,1.9l24.2,27.1c.2.2,5,5.9.5,11.6l-.9,1.1c-.7.8-1.5,1.5-2.2,2.2-4.1,3.4-9.6,3.7-11.8,3.7s-2.3,0-3.3-.3c-2.4-.4-4-1.1-4.8-2l-.3-.3c-1.3-1.4-13.5-13.8-23.6-22.2-1.3-1.1-3-2.5-4.7-2.5s-1.6.3-2.2,1c-2,2.2,1,5.4,2.3,6.6l20.6,22.7c0,.2-.3.7-.8,1.4-.7,1-3.2,3.5-10.7,4.5-.9.1-1.8.2-2.7.2-7.7,0-15.9-3.7-20.2-6,1.9-4.1,2.9-8.6,2.9-13.1,0-17-13.8-30.8-30.7-30.8-.4,0-.7,0-1.1,0,.5-7.7-.5-22.4-15.6-28.9-4.3-1.9-8.7-2.8-12.9-2.8s-6.5.6-9.4,1.7c-3.1-6.1-8.3-10.5-15-12.8-3.7-1.3-7.4-1.9-11-1.9-6.3,0-12,1.9-17.2,5.5-4.9-6.1-12.4-9.8-20.2-9.8s-13.5,2.7-18.4,7.6c-6.4-4.9-31.9-21.1-100-36.5-3.3-.7-10.6-2.8-15.3-4.2,6.4-30.6,25.8-58.5,54.6-81.4h0ZM449.5,276.1l-.7-.7h-.7c-.6,0-1.2.2-2.1.8-3.5,2.5-6.8,3.6-10.2,3.6s-3.8-.4-5.7-1.1c-15.8-6.2-14.6-21-13.8-25.5.1-.9-.1-1.6-.7-2.1l-1.1-.9-1,1c-3.1,3-7.1,4.6-11.3,4.6-9,0-16.4-7.4-16.4-16.4,0-9,7.4-16.4,16.4-16.4,8.2,0,15.1,6.1,16.2,14.3l.6,4.4,2.4-3.7c.3-.4,6.9-10.5,19.1-10.4,2.3,0,4.7.4,7.1,1.1,9.7,3,11.4,11.8,11.6,15.4.2,2.1,1.7,2.2,2,2.2.8,0,1.5-.5,1.9-1,1.8-1.9,5.8-5.1,12.1-5.1s5.9.7,9,2c15.4,6.6,8.4,26.2,8.4,26.4-1.3,3.3-1.4,4.7-.1,5.5l.6.3h.4c.7,0,1.6-.3,3-.8,2.1-.7,5.3-1.8,8.2-1.8h0c11.6.1,21.1,9.6,21.1,21.1s-9.5,21-21.1,21-20.6-8.8-21-20.1c0-1-.1-3.5-2.3-3.5s-1.7.5-2.5,1.3c-2.5,2.3-5.7,4.7-10.3,4.7s-4.4-.5-6.8-1.5c-12-4.9-12.2-13.1-11.7-16.4.1-.9.2-1.8-.4-2.5h0ZM524.5,367.5c-142.7,0-258.3-74-258.3-165.2s.3-7.3.6-10.9c1.1.3,12.5,3,14.8,3.5,69.6,15.5,92.6,31.5,96.5,34.6-1.3,3.2-2,6.6-2,10,0,14.4,11.7,26.1,26.1,26.1s3.2-.1,4.8-.4c2.2,10.6,9.1,18.6,19.7,22.7,3.1,1.2,6.2,1.8,9.3,1.8s4-.2,5.9-.7c2,5,6.3,11.1,16.2,15.1,3.4,1.4,6.9,2.1,10.2,2.1s5.4-.5,8-1.4c4.7,11.5,15.9,19.1,28.4,19.1s16.2-3.4,22-9.3c5,2.8,15.4,7.8,26,7.8,1.4,0,2.6,0,3.9-.2,10.5-1.3,15.4-5.4,17.6-8.6.4-.6.8-1.2,1.1-1.8,2.5.7,5.2,1.3,8.3,1.3,5.7,0,11.2-2,16.8-6,5.5-3.9,9.4-9.6,9.9-14.4,0,0,0-.1,0-.2,1.9.4,3.7.6,5.6.6,5.9,0,11.7-1.8,17.3-5.5,10.7-7,12.6-16.2,12.4-22.2,1.9.4,3.8.6,5.7.6,5.5,0,11-1.7,16.2-5,6.6-4.2,10.6-10.8,11.3-18.3.4-5.1-.9-10.3-3.6-14.8,17.9-7.7,58.9-22.7,107.1-33.5.2,2.7.3,5.5.3,8.2,0,91.3-115.6,165.2-258.3,165.2h0Z"/>
</svg>